<?xml version="1.0" standalone="no"?>
<!DOCTYPE svg PUBLIC "-//W3C//DTD SVG 20010904//EN"
 "http://www.w3.org/TR/2001/REC-SVG-20010904/DTD/svg10.dtd">
<svg version="1.0" xmlns="http://www.w3.org/2000/svg"
 width="414.000000pt" height="414.000000pt" viewBox="0 0 414.000000 414.000000"
 preserveAspectRatio="xMidYMid meet">

<g transform="translate(0.000000,414.000000) scale(0.100000,-0.100000)"
fill="#000000" stroke="none">
<path d="M1414 3541 c-2 -2 -4 -60 -4 -128 l0 -123 95 0 c88 0 95 1 95 20 0
18 -7 20 -70 20 l-70 0 0 40 0 40 60 0 c47 0 60 3 60 15 0 9 -10 15 -27 16
-92 4 -88 2 -91 36 l-3 32 70 3 c53 2 68 6 63 15 -7 12 -168 24 -178 14z"/>
<path d="M1954 3532 c-41 -26 -58 -70 -52 -134 4 -42 11 -57 37 -80 26 -23 40
-28 84 -28 35 0 63 7 85 20 32 20 33 22 27 68 -3 25 -8 48 -10 50 -2 2 -24 0
-49 -3 -50 -8 -66 -35 -21 -35 33 0 45 -28 20 -46 -28 -21 -82 -17 -105 6 -14
14 -20 33 -20 68 0 53 5 64 37 81 32 17 61 14 80 -9 20 -22 63 -27 63 -7 0 8
-11 24 -25 37 -34 32 -109 38 -151 12z"/>
<path d="M2545 3538 c-28 -16 -35 -28 -35 -65 0 -38 21 -55 88 -73 24 -6 46
-18 49 -26 15 -40 -63 -61 -94 -24 -21 24 -53 26 -53 5 0 -9 11 -27 25 -40 19
-20 34 -25 75 -25 41 0 56 5 75 25 50 49 24 106 -60 130 -55 16 -72 34 -52 54
18 18 55 13 71 -10 15 -22 46 -23 53 -2 3 7 -7 24 -21 38 -28 27 -85 34 -121
13z"/>
<path d="M2913 3543 c-8 -3 -13 -23 -13 -54 l0 -49 -50 0 -50 0 0 50 c0 47 -2
50 -25 50 l-25 0 0 -125 0 -125 25 0 c24 0 25 3 25 55 l0 55 50 0 50 0 0 -55
c0 -52 1 -55 25 -55 l25 0 0 124 c0 125 -5 140 -37 129z"/>
<path d="M1650 3416 l0 -126 25 0 c23 0 24 3 27 78 l3 77 46 -75 c36 -60 51
-76 72 -78 l27 -3 0 125 c0 118 -1 126 -20 126 -22 0 -34 -46 -28 -110 2 -22
0 -39 -5 -37 -5 1 -27 34 -50 72 -34 56 -48 71 -70 73 l-27 3 0 -125z"/>
<path d="M2190 3415 l0 -125 90 0 c83 0 90 1 90 20 0 18 -7 20 -65 20 l-65 0
0 105 0 105 -25 0 -25 0 0 -125z"/>
<path d="M2410 3415 l0 -125 25 0 25 0 0 109 c0 123 -4 141 -31 141 -18 0 -19
-9 -19 -125z"/>
<path d="M1535 3044 c-42 -6 -206 -45 -232 -55 -23 -8 -23 -10 -23 -219 0
-115 2 -210 4 -210 3 0 69 42 148 93 79 51 225 146 326 211 120 77 180 122
174 128 -34 34 -293 67 -397 52z"/>
<path d="M2324 3040 c-71 -10 -169 -44 -231 -80 -51 -29 -52 -31 -55 -82 l-3
-52 -175 -111 c-96 -61 -282 -181 -412 -268 -131 -86 -240 -157 -242 -157 -3
0 -7 150 -8 333 l-3 334 -152 -49 -153 -49 -2 -283 -3 -283 -140 91 c-78 50
-179 116 -225 145 -47 30 -135 88 -197 128 -61 40 -114 73 -117 73 -4 0 -5
-39 -4 -87 l3 -87 259 -168 259 -168 -262 0 -261 0 0 -155 0 -155 207 -2 207
-3 -130 -84 c-71 -46 -164 -106 -207 -134 l-77 -49 0 -85 c0 -100 -10 -100
129 -9 54 35 163 106 242 157 79 50 181 116 227 146 45 29 85 53 87 53 3 0 5
-166 5 -369 0 -204 3 -372 7 -374 9 -5 127 30 231 69 l72 27 0 323 c0 178 3
324 6 324 10 0 62 -33 324 -206 255 -168 487 -314 498 -314 4 0 8 37 10 83 l2
83 -145 98 c-82 56 -142 103 -138 109 3 6 1 7 -5 3 -9 -6 -84 37 -222 126
l-45 30 75 -7 c41 -3 83 -7 92 -8 18 -1 36 -57 24 -75 -3 -6 1 -13 10 -16 24
-9 31 -7 14 4 -8 5 -10 10 -4 10 6 0 21 -9 34 -20 28 -24 27 -24 27 -5 0 8 -6
15 -14 15 -16 0 -16 4 -3 51 10 35 11 36 72 43 33 3 99 6 144 6 l84 0 0 -34 0
-35 -52 -3 -53 -3 50 -33 c28 -18 51 -37 51 -42 1 -6 2 -17 3 -25 1 -13 24
-15 139 -15 75 0 144 -5 152 -10 10 -6 11 -10 3 -10 -29 0 9 -132 45 -161 26
-20 102 -27 102 -9 0 6 8 10 18 10 11 0 27 9 37 20 10 11 21 20 26 20 9 0 79
70 79 80 0 4 7 13 15 20 8 7 13 16 10 20 -3 4 2 11 11 14 9 3 285 6 615 6
l599 0 0 551 c0 521 -1 551 -17 543 -56 -24 -158 -43 -234 -43 -129 -1 -235
21 -471 100 -509 169 -652 197 -844 169z m-284 -504 l0 -104 -110 -68 -111
-69 111 -3 110 -3 0 -34 0 -35 -146 0 -147 0 5 52 c3 29 1 63 -5 75 -7 16 -7
27 2 37 8 10 9 16 1 21 -6 3 -8 11 -5 16 4 5 2 9 -4 9 -18 0 -22 -20 -6 -27
16 -5 16 -7 1 -15 -9 -5 -21 -6 -26 -3 -6 3 -20 -1 -32 -9 -13 -9 -17 -16 -9
-16 10 0 11 -3 2 -14 -9 -11 -9 -15 1 -19 7 -3 2 -6 -12 -7 -23 -1 -23 -2 -5
-10 11 -5 14 -9 8 -9 -8 -1 -13 -16 -13 -41 l0 -40 -137 0 -137 0 109 67 c61
36 130 79 154 94 33 22 48 26 62 19 26 -14 37 -12 16 4 -16 12 -9 19 75 77
192 132 233 159 240 159 5 0 8 -47 8 -104z"/>
<path d="M740 2809 c-36 -11 -105 -25 -154 -32 l-89 -13 154 -101 c85 -55 157
-99 161 -97 9 6 9 253 0 258 -4 2 -36 -5 -72 -15z"/>
<path d="M202 2319 c2 -18 10 -25 31 -27 36 -4 34 9 -4 32 l-31 18 4 -23z"/>
<path d="M1717 1779 c7 -7 15 -10 18 -7 3 3 -2 9 -12 12 -14 6 -15 5 -6 -5z"/>
<path d="M503 1441 l-303 -196 0 -47 0 -47 54 -20 c86 -32 178 -44 300 -39
147 7 252 31 260 61 9 32 7 475 -1 480 -5 2 -144 -84 -310 -192z"/>
<path d="M1280 1455 c0 -155 2 -186 14 -182 7 3 86 16 175 28 141 20 173 21
239 12 42 -7 86 -15 97 -18 26 -9 -330 228 -487 324 l-38 23 0 -187z"/>
<path d="M1458 844 c-74 -40 -78 -178 -6 -228 33 -23 115 -21 157 5 31 19 33
23 28 61 -6 42 -22 61 -45 53 -8 -3 -25 -5 -38 -5 -15 0 -24 -6 -24 -15 0 -9
9 -15 25 -15 33 0 45 -28 20 -46 -28 -21 -82 -17 -105 6 -29 29 -28 112 2 140
28 26 72 26 98 0 22 -22 45 -26 56 -8 4 6 -6 23 -25 40 -36 32 -97 38 -143 12z"/>
<path d="M1711 773 c-42 -34 -44 -131 -4 -160 35 -26 133 -6 133 28 0 12 -47
12 -55 -1 -10 -17 -44 -11 -55 9 -16 30 -14 31 48 31 32 0 61 3 64 6 11 10
-11 69 -33 87 -12 9 -34 17 -49 17 -15 0 -38 -8 -49 -17z m71 -30 c27 -25 22
-33 -22 -33 -43 0 -49 9 -24 34 19 20 23 20 46 -1z"/>
<path d="M1955 780 c-3 -5 -19 -7 -35 -3 l-30 6 0 -92 c0 -90 0 -91 25 -91 23
0 24 3 27 68 3 60 5 67 25 70 35 5 42 52 8 52 -8 0 -17 -4 -20 -10z"/>
<path d="M2087 773 c-11 -11 -17 -13 -17 -5 0 7 -11 12 -25 12 -25 0 -25 -1
-25 -90 0 -89 0 -90 25 -90 24 0 25 2 25 69 0 72 14 99 45 87 12 -4 15 -23 15
-81 0 -73 1 -75 25 -75 24 0 25 2 25 64 0 62 14 96 40 96 18 0 30 -40 30 -99
0 -54 2 -61 20 -61 18 0 20 7 20 79 0 59 -4 84 -16 95 -19 20 -54 21 -79 2
-16 -11 -21 -11 -33 0 -19 19 -54 18 -75 -3z"/>
<path d="M2358 768 c-21 -21 -21 -22 -2 -29 12 -4 26 -1 37 9 13 12 23 13 34
6 28 -17 26 -33 -4 -39 -52 -11 -78 -29 -81 -58 -2 -16 2 -35 9 -43 14 -16 70
-19 86 -3 8 8 13 8 17 0 4 -6 16 -11 28 -11 14 0 18 5 14 16 -3 9 -6 44 -6 79
0 76 -14 95 -71 95 -27 0 -46 -7 -61 -22z m92 -91 c0 -24 -26 -49 -46 -45 -28
5 -24 41 6 49 37 10 40 10 40 -4z"/>
<path d="M2620 781 c-8 -6 -27 -7 -42 -4 l-28 6 0 -92 c0 -90 0 -91 25 -91 23
0 24 3 27 71 2 57 7 74 21 83 29 18 47 -17 47 -91 0 -56 2 -63 20 -63 18 0 20
7 20 79 0 59 -4 84 -16 95 -17 18 -51 21 -74 7z"/>
</g>
</svg>
