<?xml version="1.0" standalone="no"?>
<!DOCTYPE svg PUBLIC "-//W3C//DTD SVG 20010904//EN"
 "http://www.w3.org/TR/2001/REC-SVG-20010904/DTD/svg10.dtd">
<svg version="1.0" xmlns="http://www.w3.org/2000/svg"
 width="225.000000pt" height="225.000000pt" viewBox="0 0 225.000000 225.000000"
 preserveAspectRatio="xMidYMid meet">

<g transform="translate(0.000000,225.000000) scale(0.100000,-0.100000)"
fill="#000000" stroke="none">
<path d="M1608 2125 c-41 -22 -65 -51 -220 -277 -96 -139 -177 -258 -181 -265
-4 -7 15 -2 43 10 49 21 58 32 192 227 78 113 161 233 186 268 24 34 40 62 35
62 -4 -1 -29 -12 -55 -25z"/>
<path d="M1460 2057 c-14 -6 -112 -50 -218 -98 -106 -48 -195 -89 -198 -92 -4
-4 109 -261 121 -275 2 -2 77 105 168 237 91 133 163 241 159 240 -4 0 -18 -5
-32 -12z"/>
<path d="M1601 1875 c-66 -96 -118 -175 -117 -175 15 0 331 151 329 157 -1 5
-22 50 -46 101 l-45 92 -121 -175z"/>
<path d="M904 1807 l-70 -32 74 -158 c42 -90 71 -162 66 -167 -5 -4 -169 -79
-364 -165 -195 -86 -376 -166 -403 -177 -26 -12 -47 -25 -47 -30 0 -4 42 -102
94 -218 l94 -210 -135 0 -135 0 4 -163 c4 -193 18 -236 102 -315 97 -92 41
-87 941 -87 900 0 844 -5 941 87 84 79 98 122 102 315 l4 163 -633 -7 c-403
-4 -630 -3 -626 3 3 6 222 106 487 224 l481 214 -6 27 c-6 24 -3 29 19 35 39
9 31 22 -15 26 -38 3 -42 6 -61 51 -12 26 -19 49 -17 51 2 2 70 -4 152 -13 81
-10 147 -15 147 -13 0 1 -7 16 -15 31 -14 28 -17 29 -169 46 -117 13 -156 21
-161 33 -3 8 -4 16 -3 17 2 2 67 -4 145 -13 79 -8 145 -13 148 -10 7 6 -78
188 -87 188 -5 0 -58 -22 -119 -50 -61 -27 -112 -50 -114 -50 -5 0 -28 61 -24
64 2 2 53 25 112 51 59 26 109 51 111 54 6 9 -72 171 -82 171 -4 0 -58 -22
-118 -49 -97 -43 -110 -47 -118 -33 -5 10 -10 19 -12 20 -1 2 -104 -42 -228
-97 -124 -56 -227 -101 -229 -101 -2 0 -37 72 -78 160 -40 88 -76 160 -79 159
-3 0 -37 -15 -76 -32z m201 -1370 c8 -12 15 -25 15 -29 0 -15 -43 -8 -55 8 -8
11 -19 14 -33 10 -30 -10 -28 -24 6 -32 59 -14 82 -33 82 -66 0 -43 -25 -68
-69 -68 -42 0 -76 20 -84 50 -4 16 0 20 18 20 13 0 26 -7 29 -16 7 -19 61 -15
61 5 0 7 -20 21 -45 30 -70 26 -79 87 -17 110 31 12 76 0 92 -22z m700 -10
c29 -41 15 -124 -24 -154 -28 -21 -87 -15 -118 11 -24 21 -28 32 -28 74 0 39
5 56 24 76 39 41 115 37 146 -7z m-1425 13 c0 -16 -7 -20 -30 -20 l-30 0 0
-80 c0 -73 -2 -80 -20 -80 -18 0 -20 7 -20 80 l0 80 -30 0 c-23 0 -30 4 -30
20 0 18 7 20 80 20 73 0 80 -2 80 -20z m162 3 c24 -21 23 -55 -1 -77 -20 -18
-20 -18 2 -52 12 -19 24 -34 27 -34 3 0 21 41 40 90 30 83 36 91 58 88 20 -3
30 -17 58 -87 19 -47 34 -91 34 -98 0 -23 -36 -14 -48 12 -16 36 -74 36 -90 0
-10 -21 -18 -25 -54 -25 -39 1 -46 5 -70 40 -37 53 -58 53 -58 0 0 -33 -3 -40
-20 -40 -19 0 -20 7 -20 100 l0 100 62 0 c43 0 67 -5 80 -17z m321 -45 l37
-63 0 63 c0 55 2 62 20 62 19 0 20 -7 20 -100 0 -94 -1 -100 -20 -100 -14 0
-33 20 -60 62 l-40 61 0 -61 c0 -55 -2 -62 -20 -62 -19 0 -20 7 -20 100 0 97
1 100 23 100 17 0 31 -15 60 -62z m335 -18 l-3 -80 48 0 c40 0 47 -3 47 -20 0
-18 -7 -20 -70 -20 l-70 0 0 100 0 100 26 0 26 0 -4 -80z m249 -3 c18 -45 35
-90 39 -99 5 -14 1 -18 -19 -18 -18 0 -27 7 -31 25 -5 21 -12 25 -41 25 -28 0
-38 -5 -47 -25 -11 -24 -48 -36 -48 -16 0 10 57 168 66 182 3 5 15 9 27 9 18
0 27 -14 54 -83z m183 63 c0 -16 -7 -20 -30 -20 l-30 0 0 -80 c0 -73 -2 -80
-20 -80 -18 0 -20 7 -20 80 l0 80 -30 0 c-23 0 -30 4 -30 20 0 18 7 20 80 20
73 0 80 -2 80 -20z m362 3 c24 -21 23 -55 -2 -78 -19 -17 -19 -18 5 -50 30
-39 32 -55 5 -55 -12 0 -31 16 -48 40 -37 53 -62 53 -62 0 0 -33 -3 -40 -20
-40 -19 0 -20 7 -20 100 l0 100 62 0 c43 0 67 -5 80 -17z"/>
<path d="M1702 414 c-40 -28 -24 -114 23 -114 49 0 72 73 35 110 -24 24 -29
24 -58 4z"/>
<path d="M440 399 c0 -17 5 -20 32 -17 22 2 34 9 36 21 3 14 -4 17 -32 17 -30
0 -36 -4 -36 -21z"/>
<path d="M657 379 c-7 -27 -4 -32 17 -27 12 2 13 7 2 27 l-13 23 -6 -23z"/>
<path d="M1377 370 c-4 -15 0 -20 14 -20 21 0 22 1 13 24 -8 22 -21 20 -27 -4z"/>
<path d="M1890 400 c0 -15 7 -20 29 -20 29 0 57 21 44 33 -3 4 -21 7 -40 7
-26 0 -33 -4 -33 -20z"/>
<path d="M545 1645 c-126 -58 -228 -105 -225 -105 44 -7 586 -67 588 -65 3 2
-126 275 -130 275 -2 0 -106 -48 -233 -105z"/>
<path d="M150 1457 c0 -2 5 -17 10 -33 l10 -29 258 -28 258 -28 55 25 c30 14
46 26 37 26 -19 0 -534 57 -590 65 -21 3 -38 4 -38 2z"/>
<path d="M236 1263 c24 -53 46 -99 48 -100 2 -2 76 29 165 68 88 40 159 74
157 77 -3 2 -76 12 -163 22 -87 11 -179 22 -205 25 l-48 6 46 -98z"/>
</g>
</svg>
